Patient4_TMGait_0pt3_01_right_14_EMG.mot
version=1
nRows=40
nColumns=33
inDegrees=no
endheader
time	1LAddLong	2LGlutMax	3LGlutMed	4LIliopsoas	5LSemiMemb	6LBicFemLong	7LRecFem	8LVastMed	9LVastLat	10LGasMed	11LTibAnt	12lTibPost	13LPeroneusLong	14LSol	15LExtDigLong	16LFlexDigLong	17RAddLong	18RGlutMax	19RGlutMed	20RIliopsoas	21RSemiMemb	22RBicFemLong	23RRecFem	24RVastMed	25RVastLat	26RGasMed	27RTibAnt	28RTibPost	29RPeroneusLong	30RSol	31RExtDigLong	32RFlexDigLong
26.345	-0.027161	0.09613	0.049591	0.018463	-0.040894	0.10803	-0.04303	0.057526	0.56732	-0.011292	0.048676	0.012207	0.039368	-0.083618	0.17212	0.017395	-0.010834	0.039825	0.12085	0.064697	0.050354	0.1059	-0.22827	0.023651	-0.0383	-0.011444	-0.35339	-0.000458	0.26566	0.031738	-0.001984	-0.028229
26.346	-0.01297	0.052643	0.047455	0.021057	-0.08194	0.11353	-0.06546	0.045471	0.54214	0.011444	0.019379	0.018768	0.020599	-0.069275	0.24124	-0.006561	-0.005188	-0.12177	-0.019226	-0.002136	0.022736	0.06485	-0.20844	0.02533	0.002594	-0.016937	-0.17716	0.000763	0.092163	0.15976	-0.002747	-0.0383
26.347	0.003662	0.044403	0.051727	0.006104	-0.10162	0.045624	-0.007324	0.02655	0.22064	0.003357	-0.037537	0.0177	0.016479	-0.03479	0.20111	0.037231	-0.010681	-0.036926	-0.20447	0.023041	0.001831	0.031281	-0.25559	-0.007782	0.028381	-0.012054	-0.05722	0.009155	0.001984	0.1535	0.001526	-0.0383
26.348	0.02243	0.078125	-0.027466	-0.006409	0.066681	-0.039368	0.03479	-0.001068	-0.23422	-0.008545	-0.030212	0.01709	0.008392	-0.032043	0.079956	0.018005	-0.002441	-0.032349	-0.028839	0.077209	0.002289	0.015106	-0.19791	0.017242	0.021515	0.002136	-0.12421	0.001221	-0.041046	0.071869	-0.00412	-0.032043
26.349	0.035248	0.028992	-0.022583	0.000153	0.094452	-0.020142	-0.073242	-0.016174	-0.54947	-0.025482	-0.027771	0.009155	0.039215	-0.013428	-0.038757	0.012665	0.004883	-0.092773	0.10574	0.03952	-0.01358	-0.007477	-0.075989	-0.045471	0.018463	0.00473	-0.067444	-0.001373	-0.25894	0.13336	-0.00061	-0.034485
26.35	0.041199	0.011597	0.050964	-0.006409	0.03479	0.007629	-0.16983	-0.003967	-0.52475	0.001068	-0.001221	0.012512	0.032501	-0.037689	-0.045319	0.032196	0.025177	-0.03952	0.13321	0.000916	-0.012207	-0.080872	-0.1149	-0.018768	0.008698	0.000458	0.1088	0.001373	-0.10437	0.17502	-0.004578	-0.040894
26.351	0.046234	-0.007172	-0.049744	0.008545	0.003052	0.060577	-0.22888	-0.003662	-0.48508	0.012665	0.12848	0.008698	-0.031128	-0.034943	0.224	0.019226	0.046387	-0.087433	-0.088501	0.025177	0.012512	-0.17609	-0.13519	-0.029907	-0.009613	-0.005493	0.1329	0.001526	-0.19104	0.17197	0.000305	-0.039673
26.352	0.04303	-0.059509	-0.090332	0.036621	0.019379	-0.03891	-0.19241	-0.005341	-0.50705	0.010986	0.1268	0.005035	-0.024872	-0.005493	0.34866	0.021515	0.046082	-0.089417	-0.081482	0.00473	0.048065	-0.17197	-0.16098	0.006256	-0.001678	-0.002136	-0.079041	0.002899	-0.21118	0.18097	-0.000763	-0.029297
26.353	0.036774	-0.041351	-0.036469	0.014801	0.081787	0.023499	-0.10681	0.004425	-0.45654	0.007477	0.044708	-0.000305	-0.021057	0.036011	0.56885	0.03067	0.026398	-0.020752	0.097198	0.057373	-0.021362	-0.088806	-0.099792	0.029755	-0.032196	-0.008392	-0.16403	0.002899	-0.19684	0.19287	-0.00351	-0.032806
26.354	0.023651	-0.052795	-0.037842	0.006409	0.05249	0.17563	0.00351	-0.016327	-0.32105	0.015106	0.011597	0.006714	-0.040588	0.053711	-0.040894	0.022888	-0.003662	-0.015259	0.23209	0.055084	-0.11932	-0.046692	-0.10971	0.048523	-0.050201	-0.004883	-0.032196	0.000458	-0.26764	0.13519	0.000153	-0.035858
26.355	0.012512	-0.037384	-0.011292	-0.003815	0.001221	0.2327	0.1207	-0.02243	-0.12405	-0.006714	0.14145	-0.006104	0.030518	0.12482	0.14893	0.028534	-0.006561	-0.005798	-0.037994	0.044556	-0.056915	0.000763	-0.12466	0.003204	-0.065613	-0.011292	0.084686	-0.001373	-0.037384	0.20035	-0.002441	-0.032806
26.356	-0.00946	0.023041	-0.005035	-0.014496	0.00946	0.21454	0.26627	-0.004578	-0.023346	-0.036316	0.21439	0.004578	0.121	0.168	-0.19287	0.028534	-0.004272	-0.018463	0.059052	-0.005493	0.10681	-0.046387	-0.17334	-0.063019	-0.056305	-0.011292	0.001221	-0.005646	-0.21591	0.11688	-0.003204	-0.027008
26.357	-0.018005	-0.02182	-0.043793	-0.003052	0.010529	0.26047	0.21103	0.00885	0.000153	-0.018005	0.098114	0.005035	0.078125	0.14389	0.0177	0.037079	-0.007935	-0.019379	0.054169	-0.05127	0.080566	0.025787	-0.19257	-0.062561	-0.042267	-0.002899	-0.11169	-0.001221	-0.33463	0.057373	-0.00061	-0.025482
26.358	-0.032043	-0.055084	0.048065	0.00824	-0.050659	0.26642	0.10132	0.043335	-0.023041	-0.019073	-0.19028	0.006866	0.081482	0.046082	-0.24963	0.041962	0.010681	-0.066223	0.011902	-0.043182	-0.00412	0.05188	-0.06424	-0.097809	-0.050354	0.002899	-0.007629	-0.000916	-0.092316	-0.008392	-0.000458	-0.024719
26.359	-0.031738	-0.028839	0.057678	0.000305	-0.10468	0.17685	0.045929	0.059967	0.023956	-0.016022	-0.20309	-0.000458	0.060425	-0.007477	-0.62653	-0.013275	-0.011902	-0.075989	-0.018158	-0.012512	-0.083313	-0.02594	-0.1152	0.035095	0.053101	0.000153	0.24643	-0.004883	0.018616	-0.007324	0.003967	-0.025787
26.36	-0.00885	0.042725	0.017242	0.00824	-0.13916	0.084839	0.15274	0.03006	0.17273	0.014954	-0.1236	-0.000458	0.032349	0.012207	-0.53421	0.008392	-0.00473	-0.063934	0.26245	0.007019	-0.04776	-0.093079	-0.11688	0.029449	0.10819	-0.006256	0.37994	-0.007782	0.12512	-0.036011	-0.002136	-0.021057
26.361	0.02121	-0.004883	0.010681	0.008545	-0.020142	-0.15671	0.17929	-0.010223	0.13748	0.008087	-0.1268	0.007324	0.030212	-0.002594	-0.35095	-0.007477	0.013428	0.004425	0.12741	0.001221	0.019531	-0.097961	0.073853	-0.048523	0.065765	-0.019073	0.60791	-0.000763	-0.21896	-0.048065	-0.000153	-0.023193
26.362	0.023651	-0.06073	0.059967	0.001526	0.1236	-0.13657	0.16068	-0.018768	0.045929	-0.010223	-0.092316	0.006104	0.007019	-0.081024	-0.13092	-0.018311	0.009308	0.013275	0.015259	0.022125	0.13672	-0.03418	0.10407	-0.061493	-0.000763	-0.008545	0.57999	0.001373	-0.27908	-0.12558	0.000153	-0.024567
26.363	0.015411	-0.16251	0.027771	0.011749	0.10452	-0.026398	0.083771	-0.024567	-0.00946	-0.00473	-0.11643	0.008087	-0.010681	0.051727	0.36621	-0.01709	0.00351	0.013733	0.057678	0.022736	0.14679	-0.026855	-0.028687	-0.12421	-0.048065	-0.004425	0.38406	0.001373	0.011597	-0.19089	-0.001373	-0.02243
26.364	0.00351	-0.19363	0.007629	0.015259	0.05722	-0.04715	-0.060272	-0.033722	-0.014954	0.006104	-0.07309	0.005798	-0.033112	0.10269	0.27252	-0.0383	0.004425	-0.004883	0.065308	0.022888	0.074768	-0.039368	-0.18829	-0.25162	-0.12054	0.006866	0.22598	0.001678	-0.42358	-0.27725	-0.003357	-0.020447
26.365	-0.000916	-0.15976	-0.031433	0.016022	0.050812	-0.063934	-0.10727	-0.013275	-0.042419	-0.013428	-0.056915	0.002441	-0.024414	0.083466	0.077515	-0.041504	0.017395	0.026245	0.088043	0.034332	0.059662	-0.10986	-0.2565	-0.18204	-0.028381	0.013275	-0.18463	0.002899	-0.62515	-0.2034	-0.003662	-0.020599
26.366	0.008087	-0.1329	-0.079041	0.014191	0.030518	-0.12665	-0.19134	-0.007782	-0.052643	0.011749	-0.002899	0.00473	-0.00351	0.031433	0.13458	-0.046997	-0.003204	0.00473	0.063934	0.03891	0.058899	-0.005188	-0.34012	-0.041809	0.051422	0.007629	-0.67032	-0.002136	0.31921	-0.17624	-0.001831	-0.01709
26.367	0.014038	-0.14496	-0.11032	-0.003357	-0.000305	-0.25589	-0.23514	0.006561	0.020142	0.000305	0.035248	0.013275	0.003967	-0.010834	0.39932	-0.057678	0	0.02243	0.10147	0.059204	0.043488	0.090637	-0.50003	0.072937	0.056	-0.006561	-1.514	0.00061	-0.069427	-0.15579	-0.002136	-0.019226
26.368	0.001068	-0.072327	-0.16113	-0.00824	-0.006561	-0.24033	-0.063477	0.03067	-0.024872	-0.007019	-0.011902	0.017853	-0.001221	0.046539	0.087891	-0.041199	-0.003357	0.099792	0.019379	0.021057	0.044708	0.12985	-0.28961	0.12634	-0.022888	0.003204	-1.3737	-0.000763	-0.088348	-0.22385	-0.003052	-0.016785
26.369	-0.007477	-0.03067	-0.20157	-0.001221	0.014648	-0.074158	0.071259	0.024567	0.041504	0.011597	-0.036926	0.012665	-0.008545	0.027466	-0.096436	-0.068665	-0.025024	0.072632	-0.036469	-0.002594	0.05249	0.077972	-0.20706	-0.025787	-0.10559	0.001984	0.063782	-0.004883	0.055084	-0.1239	-0.002289	-0.019379
26.37	-0.022125	0.066833	-0.13428	0.011139	0.022736	0.034485	0.05722	0.032043	0.04776	0.007477	0.00946	0.010071	-0.033569	0.076294	-0.1062	-0.061035	-0.007019	0.081177	0.10529	-0.032654	0.036316	-0.00351	-0.26398	-0.08255	-0.044861	0.007019	0.67947	0.001068	0.37354	-0.2124	-0.00473	-0.005341
26.371	-0.017242	0.086823	-0.063019	0.000916	0.005493	0.14557	-0.082092	0.037689	0.067596	0.01236	0.020447	0.016937	-0.033722	0.092773	-0.057526	-0.057678	0.002747	0.083313	0.058899	-0.009308	0.029907	0.016632	-0.27084	-0.16266	0.15427	0.008087	0.46158	-0.001373	0.69092	-0.053253	-0.003967	-0.014954
26.372	-0.021515	0.046387	-0.080872	0.006714	-0.071411	0.19501	-0.17838	0.020752	0.094147	0.002747	0.038147	0.01709	-0.007782	0.10407	0.019073	-0.061951	0.018616	-0.016785	0.090332	-0.000305	0.046997	-0.00824	-0.16861	-0.20294	0.39764	-0.000458	0.68054	-0.001373	0.3244	0.21881	-0.001831	-0.008392
26.373	-0.005493	0.018921	-0.059967	-0.006256	-0.11612	0.1503	-0.19379	-0.00412	0.20645	-0.001068	-0.055847	0.013428	-0.015259	0.11871	0.047913	-0.032043	0.018768	0.005646	0.094452	0.022736	0.039825	0.047302	-0.20172	-0.16464	0.4071	-0.005341	0.51926	-0.002594	-0.34637	0.30136	-0.008698	-0.013275
26.374	-0.009308	0.063324	-0.057068	-0.012207	-0.13763	0.082397	-0.18967	-0.017853	0.22736	0.015869	0.062866	0.01358	-0.088196	0.11673	0.34943	-0.063629	0.006104	0.04303	0.15747	0.01709	0.050507	0.053864	-0.20767	-0.11307	0.40741	-0.011139	-0.023346	-0.002747	-0.33142	0.34729	-0.006256	-0.013885
26.375	-0.023956	0.068359	-0.007019	-0.008392	-0.12451	0.10651	-0.14481	0.004578	0.21255	0.037994	0.38254	0.012817	-0.15488	0.085907	0.32181	-0.06073	0.01709	0.049591	-0.068207	-0.014648	0.041046	0.041656	-0.16327	-0.20233	0.27969	0.001831	-0.29419	-0.002289	-0.20569	0.17761	-0.007629	-0.003967
26.376	-0.0383	0.11505	0.006256	-0.001373	-0.06073	0.26382	-0.11383	0.010376	0.14313	-0.039825	0.38544	0.006561	-0.063324	0.17334	0.22614	-0.044708	0.009918	-0.002899	-0.040131	-0.048676	0.048523	0.072937	-0.33463	-0.12573	0.15152	-0.004883	-0.24872	0.000763	-0.26169	0.071106	-0.009003	-0.008545
26.377	-0.045929	0.13397	-0.014038	0.005188	0.02182	0.38132	-0.21042	0.0177	-0.01358	-0.069733	0.034943	0.006866	0.046082	0.25543	0.4805	-0.06546	-0.01236	0.10483	0.28412	-0.089111	0.095978	0.063019	-0.31921	0.050354	-0.049744	-0.005493	-0.17761	-0.003662	0.25803	0.11551	-0.003052	-0.005798
26.378	-0.055542	0.11749	-0.090179	0.024414	-0.071869	0.13855	-0.23987	0.041046	-0.034027	-0.027466	-0.31265	-0.001678	0.006714	0.27924	0.063629	-0.046844	0.00885	0.12512	0.29938	-0.068359	0.041809	0.010071	-0.016327	0.072021	-0.34271	0.000763	-0.2092	-0.000305	0.82886	0.060883	-0.00061	-0.010834
26.379	-0.009613	0.13306	-0.13107	0.018616	-0.097504	-0.12466	-0.23056	0.0354	0.027008	-0.008087	-0.19653	-0.004883	-0.082245	0.271	0.097046	-0.063171	0.023499	0.080109	0.052795	-0.029907	-0.03418	-0.11902	-0.1535	-0.051575	-0.59998	0.007935	-0.31799	0.002899	-0.40817	0.018921	-0.002441	-0.00824
26.38	-0.040436	0.14664	-0.051117	0.00885	0.002289	-0.11719	-0.27008	-0.001984	0.1088	-0.011902	-0.096436	-0.00351	-0.079193	0.23102	-0.56808	-0.074615	0.027161	0.038757	0.051422	0.02182	-0.0383	-0.14297	-0.29663	-0.041199	-0.58868	0.004425	0.009918	0.00061	-0.080109	0.08255	0.000458	0
26.381	0.044098	0.14542	0.068817	0.014191	0.039063	-0.050507	-0.27451	-0.015411	0.08255	-0.022125	-0.10346	-0.010529	-0.029144	0.10925	-0.51331	-0.078888	0.032043	0.035706	0.072174	0.090485	-0.003967	-0.19409	-0.36713	0.10269	-0.03479	0.002136	0.31525	0.003662	-0.068665	0.10834	-0.001068	-0.003662
26.382	0.011292	0.14069	0.019379	-0.003967	0.041046	0.13458	-0.24246	-0.011139	0.078125	-0.023193	-0.062714	0.00946	-0.039978	0.025482	-0.80902	-0.092468	0.023041	0.062561	0.034637	0.072174	0.035706	0.000458	-0.32135	0.12985	0.045013	-0.001068	0.1622	0.009613	-0.42496	0.056915	0	-0.010071
26.383	0.028839	0.13916	-0.091248	0.002594	0.058899	0.20508	-0.17044	-0.010529	0.17609	-0.022888	-0.074768	-0.009613	-0.039063	0.065002	-0.43152	-0.094757	0.007782	0.072937	0.097351	0.011292	-0.001373	0.067444	-0.14908	-0.013428	-0.058289	-0.000458	-0.011292	0.001221	-0.22568	0.055542	-0.003357	-0.014191
26.384	0.034637	0.15579	-0.1207	-0.000458	0.048218	0.11017	-0.13001	-0.004578	0.27466	-0.007019	-0.08606	-0.017548	-0.020294	-0.023193	-0.10513	-0.072327	0.036163	0.013733	-0.082245	0.006866	-0.046082	0.14175	-0.11719	-0.090179	-0.063171	-0.001526	0.097504	0	0.47791	0.13214	-0.002441	-0.011444
